<?xml version="1.0" encoding="UTF-8" standalone="no"?>
<!DOCTYPE svg PUBLIC "-//W3C//DTD SVG 1.1//EN" "http://www.w3.org/Graphics/SVG/1.1/DTD/svg11.dtd">
<svg width="100%" height="100%" viewBox="0 0 700 200" version="1.1" xmlns="http://www.w3.org/2000/svg" xmlns:xlink="http://www.w3.org/1999/xlink" xml:space="preserve" xmlns:serif="http://www.serif.com/" style="fill-rule:evenodd;clip-rule:evenodd;stroke-linecap:round;stroke-miterlimit:1.5;">
    <g transform="matrix(1,0,0,1,-318.6,-268.5)">
        <path d="M672.793,329.224C671.88,329.926 669.054,335.225 666.514,341C663.974,346.775 661.558,351.839 661.145,352.253C660.732,352.667 658.005,347.604 655.084,341.003L649.773,329L642.386,329C638.324,329 635,329.215 635,329.478C635,329.927 645.956,353.839 650.101,362.438C651.146,364.604 652,367.12 652,368.029C652,368.938 648.175,377.873 643.5,387.884C638.825,397.895 635,406.741 635,407.543C635,409.451 647.258,409.636 648.731,407.75C649.268,407.063 652.083,401.198 654.988,394.718C657.893,388.238 660.486,383.153 660.751,383.418C661.016,383.682 663.796,389.434 666.93,396.199L672.628,408.5L678.962,408.802C682.446,408.967 685.664,408.736 686.113,408.287C686.561,407.839 683.065,398.928 678.343,388.486C673.622,378.044 669.764,368.6 669.771,367.5C669.778,366.4 673.447,357.651 677.925,348.057C682.402,338.463 685.883,330.138 685.66,329.557C685.054,327.979 674.76,327.712 672.793,329.224M526.873,330.207C526.447,331.682 526.425,341.944 526.762,381.296L527,409.091L533.537,409.262L540.313,409.295L540.775,392.25L541.05,376L559.95,376L560.5,408.5L567.25,408.796L574,409.091L574,329L560,329L560,362L541.05,362L540.5,329.5L533.873,329.207C529.111,328.997 527.142,329.278 526.873,330.207M586,369.02L586,409.041L606.75,408.77L627.5,408.5L627.816,404.08C628.473,394.877 628.812,395.093 613.238,394.778L599.5,394.5L599.212,385.25L598.925,376L622,376L622,362.066L599.5,361.5L599.213,352.278L598.926,343.055L613.213,342.778L627.5,342.5L627.796,335.75L628.091,329L586,329L586,369.02M695.456,330.253C695.192,330.942 695.094,348.829 695.238,370.003L695.5,408.5L708.5,408.5L709.05,376L732,376L732,372.082C732,369.927 732.22,367.564 732.489,366.832C733.758,363.381 731.456,362.65 720.085,362.894L709,363.131L709,341.713L721.887,342.235C728.975,342.523 735.311,342.426 735.968,342.02C737.309,341.191 738.307,333.541 737.433,330.789C736.912,329.147 735.184,329 716.401,329C700.928,329 695.82,329.306 695.456,330.253M747.239,368.75L747.5,408.5L754.25,408.796L761,409.091L761,329L746.977,329L747.239,368.75M773.238,368.706L773.5,408.5L786.5,408.5L787.5,363.5L790.853,370.5C792.697,374.35 796.8,383.35 799.971,390.5C803.141,397.65 806.326,404.756 807.047,406.292C808.311,408.982 808.598,409.073 814.929,408.792L821.5,408.5L821.5,329.5L814.75,329.204L808,328.909L808,350.288C808,362.046 807.702,371.965 807.338,372.329C806.579,373.088 805.559,370.977 795.104,347L787.473,329.5L772.977,328.912L773.238,368.706M834.239,368.75L834.5,408.5L847.5,408.5L847.761,368.75L848.023,329L833.977,329L834.239,368.75M856.397,331.554C855.545,334.947 856.606,341.133 858.215,342.154C858.922,342.602 862.531,342.976 866.236,342.985L872.973,343L873.236,375.75L873.5,408.5L880.25,408.796L887,409.091L887,343L893.8,343C897.756,343 901.102,342.498 901.8,341.8C902.46,341.14 903,337.99 903,334.8L903,329L857.038,329L856.397,331.554M908,329.894C908,330.386 910.747,337.699 914.104,346.144C927.591,380.076 926.406,375.766 926.982,393L927.5,408.5L940.5,408.5L941.542,378.5L951.271,354.712C956.622,341.628 961,330.471 961,329.918C961,329.309 958.139,329.028 953.75,329.206L946.5,329.5L942.243,341C939.902,347.325 937.254,354.473 936.358,356.885C934.404,362.152 934.785,362.747 927.955,343.75L922.652,329L915.326,329C911.297,329 908,329.402 908,329.894" style="fill:rgb(9,9,9);"/>
    </g>
    <g transform="matrix(0.757222,-0.437246,0.437246,0.757222,-6.70768,60.0139)">
        <path d="M113.903,28.5L134.12,40.173L134.12,63.518L113.903,75.19L93.685,63.518L93.685,40.173L113.903,28.5Z" style="fill:none;stroke:black;stroke-width:9.72px;"/>
    </g>
    <g transform="matrix(0.757222,-0.437246,0.437246,0.757222,-6.70768,110.545)">
        <path d="M113.903,28.5L134.12,40.173L134.12,63.518L113.903,75.19L93.685,63.518L93.685,40.173L113.903,28.5Z" style="fill:none;stroke:black;stroke-width:9.72px;"/>
    </g>
    <g transform="matrix(0.757222,-0.437246,0.437246,0.757222,-6.70768,160.888)">
        <path d="M113.903,28.5L134.12,40.173L134.12,63.518L113.903,75.19L93.685,63.518L93.685,40.173L113.903,28.5Z" style="fill:none;stroke:black;stroke-width:9.72px;"/>
    </g>
    <g transform="matrix(0.757222,-0.437246,0.437246,0.757222,37.7827,85.7351)">
        <path d="M113.903,28.5L134.12,40.173L134.12,63.518L113.903,75.19L93.685,63.518L93.685,40.173L113.903,28.5Z" style="fill:none;stroke:black;stroke-width:9.72px;"/>
    </g>
    <g transform="matrix(0.757222,-0.437246,0.437246,0.757222,-50.7329,85.7351)">
        <path d="M113.903,28.5L134.12,40.173L134.12,63.518L113.903,75.19L93.685,63.518L93.685,40.173L113.903,28.5Z" style="fill:none;stroke:black;stroke-width:9.72px;"/>
    </g>
    <g transform="matrix(0.757222,-0.437246,0.437246,0.757222,37.7827,135.966)">
        <path d="M113.903,28.5L134.12,40.173L134.12,63.518L113.903,75.19L93.685,63.518L93.685,40.173L113.903,28.5Z" style="fill:none;stroke:black;stroke-width:9.72px;"/>
    </g>
    <g transform="matrix(0.757222,-0.437246,0.437246,0.757222,-50.7329,135.966)">
        <path d="M113.903,28.5L134.12,40.173L134.12,63.518L113.903,75.19L93.685,63.518L93.685,40.173L113.903,28.5Z" style="fill:none;stroke:black;stroke-width:9.72px;"/>
    </g>
</svg>
